<svg xmlns="http://www.w3.org/2000/svg" width="317.515" height="28.064" viewBox="0 0 317.515 28.064">
  <g id="BLACK-ICONS" transform="translate(-85.508 -2868.603)">
    <path id="Icon_awesome-facebook-square" data-name="Icon awesome-facebook-square" d="M22.632,2.25H2.716A2.716,2.716,0,0,0,0,4.966V24.882A2.716,2.716,0,0,0,2.716,27.6h7.766V18.98H6.917V14.924h3.565V11.832c0-3.516,2.093-5.459,5.3-5.459a21.6,21.6,0,0,1,3.141.274V10.1H17.153a2.028,2.028,0,0,0-2.287,2.191v2.634h3.892l-.622,4.056H14.866V27.6h7.766a2.716,2.716,0,0,0,2.716-2.716V4.966A2.716,2.716,0,0,0,22.632,2.25Z" transform="translate(85.508 2868.463)"/>
    <path id="Icon_awesome-twitter-square" data-name="Icon awesome-twitter-square" d="M22.632,2.25H2.716A2.717,2.717,0,0,0,0,4.966V24.882A2.717,2.717,0,0,0,2.716,27.6H22.632a2.717,2.717,0,0,0,2.716-2.716V4.966A2.717,2.717,0,0,0,22.632,2.25Zm-2.767,8.985c.011.158.011.323.011.481A10.486,10.486,0,0,1,9.319,22.274a10.509,10.509,0,0,1-5.7-1.663,7.818,7.818,0,0,0,.894.045,7.44,7.44,0,0,0,4.606-1.584A3.716,3.716,0,0,1,5.652,16.5a4,4,0,0,0,1.675-.068,3.711,3.711,0,0,1-2.97-3.644V12.74a3.708,3.708,0,0,0,1.675.47A3.7,3.7,0,0,1,4.379,10.12a3.664,3.664,0,0,1,.5-1.873,10.537,10.537,0,0,0,7.65,3.881A3.719,3.719,0,0,1,18.864,8.74a7.271,7.271,0,0,0,2.354-.894,3.7,3.7,0,0,1-1.63,2.043,7.385,7.385,0,0,0,2.139-.577A7.811,7.811,0,0,1,19.865,11.235Z" transform="translate(140.5 2868.463)"/>
    <path id="Icon_awesome-instagram" data-name="Icon awesome-instagram" d="M12.679,8.415a6.5,6.5,0,1,0,6.5,6.5A6.491,6.491,0,0,0,12.679,8.415Zm0,10.728a4.227,4.227,0,1,1,4.227-4.227,4.234,4.234,0,0,1-4.227,4.227ZM20.962,8.149a1.516,1.516,0,1,1-1.516-1.516A1.513,1.513,0,0,1,20.962,8.149Zm4.306,1.539a7.5,7.5,0,0,0-2.048-5.313,7.553,7.553,0,0,0-5.313-2.048c-2.093-.119-8.368-.119-10.462,0A7.543,7.543,0,0,0,2.132,4.369,7.529,7.529,0,0,0,.084,9.682c-.119,2.093-.119,8.368,0,10.462a7.5,7.5,0,0,0,2.048,5.313A7.563,7.563,0,0,0,7.445,27.5c2.093.119,8.368.119,10.462,0a7.5,7.5,0,0,0,5.313-2.048,7.553,7.553,0,0,0,2.048-5.313c.119-2.093.119-8.363,0-10.456Zm-2.7,12.7a4.279,4.279,0,0,1-2.41,2.41c-1.669.662-5.63.509-7.474.509S6.868,25.457,5.2,24.8a4.279,4.279,0,0,1-2.41-2.41c-.662-1.669-.509-5.63-.509-7.474s-.147-5.811.509-7.474A4.279,4.279,0,0,1,5.2,5.031c1.669-.662,5.63-.509,7.474-.509s5.811-.147,7.474.509a4.279,4.279,0,0,1,2.41,2.41c.662,1.669.509,5.63.509,7.474S23.225,20.727,22.563,22.39Z" transform="translate(195.497 2867.769)"/>
    <path id="Icon_simple-venmo" data-name="Icon simple-venmo" d="M4.756,14.58a1.889,1.889,0,0,1,.29,1.074c0,1.34-1.147,3.078-2.076,4.309H.857L0,14.87l1.859-.181.447,3.621a5.732,5.732,0,0,0,.941-2.487,2.033,2.033,0,0,0-.181-.905ZM7.17,16.813c.338,0,1.207-.157,1.207-.64a.342.342,0,0,0-.362-.362A1.046,1.046,0,0,0,7.17,16.813Zm-.036.966c0,.6.326.845.773.845A3.277,3.277,0,0,0,9.439,18.2L9.21,19.722A4.2,4.2,0,0,1,7.5,20.06a1.967,1.967,0,0,1-2.185-2.2A2.989,2.989,0,0,1,8.184,14.6c1.062,0,1.666.591,1.666,1.424,0,1.328-1.726,1.75-2.716,1.762Zm8.075-2.016a6.115,6.115,0,0,1-.06.676l-.555,3.525H12.783l.507-3.235.036-.362c0-.241-.145-.29-.314-.29a1.484,1.484,0,0,0-.628.181L11.8,19.963H9.994l.821-5.275h1.569l.024.422a2.77,2.77,0,0,1,1.557-.519c.917,0,1.243.483,1.243,1.183Zm5.371-.591a2.751,2.751,0,0,1,1.69-.579c.917,0,1.243.483,1.243,1.183a4.828,4.828,0,0,1-.06.664L22.9,19.963H21.087l.519-3.3.024-.266c0-.266-.145-.326-.326-.326a1.363,1.363,0,0,0-.6.181l-.579,3.706H18.311l.519-3.307.024-.253c0-.266-.145-.326-.326-.326a1.54,1.54,0,0,0-.628.181l-.567,3.694H15.51l.833-5.263h1.545l.06.435a2.47,2.47,0,0,1,1.5-.531,1.212,1.212,0,0,1,1.135.579ZM27.11,16.7c0-.422-.109-.724-.422-.724-.724,0-.869,1.267-.869,1.907,0,.495.133.8.459.8.676,0,.833-1.328.833-1.98Zm-3.138,1.11c0-1.666.893-3.223,2.909-3.223a1.889,1.889,0,0,1,2.088,2.149c0,1.642-.869,3.344-2.945,3.344-1.533,0-2.052-1-2.052-2.269Z" transform="translate(250.498 2866.055)"/>
    <path id="Icon_awesome-pinterest" data-name="Icon awesome-pinterest" d="M28.064,14.594A14.034,14.034,0,0,1,9.879,28a15.773,15.773,0,0,0,1.743-3.678c.17-.656.871-3.338.871-3.338a3.758,3.758,0,0,0,3.214,1.613c4.232,0,7.282-3.893,7.282-8.73,0-4.634-3.785-8.1-8.651-8.1-6.054,0-9.273,4.062-9.273,8.493,0,2.06,1.1,4.623,2.846,5.437.266.124.407.068.47-.187.045-.192.283-1.149.39-1.59a.42.42,0,0,0-.1-.4,5.526,5.526,0,0,1-1.035-3.2,6.072,6.072,0,0,1,6.337-6.088,5.54,5.54,0,0,1,5.862,5.709c0,3.8-1.918,6.427-4.413,6.427a2.035,2.035,0,0,1-2.076-2.535c.4-1.669,1.16-3.468,1.16-4.674a1.762,1.762,0,0,0-1.777-1.975c-1.409,0-2.54,1.454-2.54,3.406a5.056,5.056,0,0,0,.419,2.082s-1.386,5.873-1.641,6.971a13.582,13.582,0,0,0-.051,4.029,14.033,14.033,0,1,1,19.147-13.07Z" transform="translate(309.11 2868.041)"/>
    <path id="Icon_awesome-soundcloud" data-name="Icon awesome-soundcloud" d="M6.3,16.11l.328,3.678L6.3,23.652a.267.267,0,0,1-.249.249.245.245,0,0,1-.238-.249L5.5,19.787l.317-3.678a.243.243,0,0,1,.238-.238.271.271,0,0,1,.249.238Zm1.211-2.58a.291.291,0,0,0-.283.283l-.283,5.975.283,3.864a.291.291,0,0,0,.283.283.277.277,0,0,0,.266-.283l.328-3.864L7.78,13.812A.277.277,0,0,0,7.514,13.529Zm1.443-1.364a.313.313,0,0,0-.317.3l-.249,7.355.249,3.836a.313.313,0,0,0,.317.3.3.3,0,0,0,.3-.3l.3-3.836-.3-7.355A.3.3,0,0,0,8.957,12.166ZM.407,17.632c-.079,0-.124.062-.141.141L0,19.787l.266,1.98c.017.079.062.141.141.141s.124-.062.141-.141l.317-1.98L.549,17.773c-.017-.079-.062-.141-.141-.141Zm1.335-1.239a.14.14,0,0,0-.141.141l-.362,3.253L1.6,22.961a.145.145,0,0,0,.141.158.168.168,0,0,0,.158-.141l.407-3.191L1.9,16.534a.168.168,0,0,0-.158-.141Zm1.431-.645a.2.2,0,0,0-.187.187l-.328,3.853.328,3.723a.2.2,0,0,0,.187.175.176.176,0,0,0,.175-.175l.39-3.723-.39-3.853a.179.179,0,0,0-.175-.187Zm1.431-.124a.2.2,0,0,0-.2.2l-.328,3.961L4.4,23.623a.2.2,0,0,0,.2.2.225.225,0,0,0,.221-.2l.362-3.836-.362-3.961A.225.225,0,0,0,4.606,15.623ZM18.264,9.348a.442.442,0,0,0-.238-.079.52.52,0,0,0-.317.108.58.58,0,0,0-.187.379V9.8l-.187,10,.1,1.839.1,1.794a.517.517,0,0,0,.5.487.49.49,0,0,0,.487-.487l.221-3.632L18.519,9.756a.545.545,0,0,0-.255-.407Zm-1.511.866a.5.5,0,0,0-.249-.079.48.48,0,0,0-.249.079.447.447,0,0,0-.2.379l-.017.1-.158,9.1s0,.017.175,3.712v.017a.427.427,0,0,0,.1.266.485.485,0,0,0,.362.175.459.459,0,0,0,.317-.141.39.39,0,0,0,.141-.317l.017-.379.175-3.316-.187-9.211a.508.508,0,0,0-.221-.379Zm-6.3,1.273a.343.343,0,0,0-.328.345l-.249,7.955.249,3.8a.337.337,0,0,0,.673,0l.283-3.8L10.8,11.832A.354.354,0,0,0,10.45,11.487ZM31.764,15.04a4.544,4.544,0,0,0-1.731.345,7.863,7.863,0,0,0-7.825-7.152,7.716,7.716,0,0,0-2.846.532c-.345.124-.441.249-.441.521V23.414a.533.533,0,0,0,.487.521H31.758a4.447,4.447,0,0,0,.006-8.894ZM14.977,11.628a.449.449,0,0,0-.441.441L14.349,19.8l.187,3.712a.446.446,0,0,0,.441.424.42.42,0,0,0,.424-.424l.221-3.712L15.4,12.07A.435.435,0,0,0,14.977,11.628Zm-3.033-.441a.384.384,0,0,0-.362.379l-.221,8.221.221,3.785a.371.371,0,0,0,.741,0l.249-3.785-.249-8.221a.4.4,0,0,0-.379-.379Zm1.511.192a.388.388,0,0,0-.39.39l-.221,8.017.221,3.757a.4.4,0,0,0,.39.39.391.391,0,0,0,.39-.39l.238-3.757-.238-8.017a.384.384,0,0,0-.39-.39Z" transform="translate(366.818 2864.479)"/>
  </g>
</svg>
