<svg xmlns="http://www.w3.org/2000/svg" width="355.915" height="149.561" viewBox="0 0 355.915 149.561">
  <g id="logo" transform="translate(-6 -5.2)">
    <g id="Group_1" data-name="Group 1" transform="translate(6 5.2)">
      <path id="Path_1" data-name="Path 1" d="M18.6,43.966V66.611H6V5.8H31.018c12.783,0,21.366,6.757,21.366,19.357,0,9.679-5.3,15.887-13.879,17.9l16.07,23.557H40.331L25.175,43.966Zm0-10.409H30.288c6.391,0,9.679-3.287,9.679-8.4s-3.287-8.583-9.679-8.583H18.6Z" transform="translate(-6 -4.704)" fill="#fff"/>
      <path id="Path_2" data-name="Path 2" d="M48.5,66.611H35.9V5.8H48.5Z" transform="translate(18.702 -4.704)" fill="#fff"/>
      <path id="Path_3" data-name="Path 3" d="M59.248,49.758c1.644,5.3,6.209,7.852,12.053,7.852,6.209,0,10.226-2.739,10.226-7.67,0-3.652-2.191-5.661-7.487-6.757L63.083,40.627c-8.583-2.009-15.34-6.574-15.34-16.618C47.744,13.052,56.874,5.2,69.657,5.2c13.879,0,21.914,7.3,23.922,17.714h-12.6c-1.461-4.018-4.931-7.3-11.139-7.3-5.661,0-9.679,2.739-9.679,7.122,0,3.47,2.191,5.478,6.757,6.574l11.139,2.557c9.861,2.191,15.887,7.852,15.887,17.166,0,11.87-9.679,18.992-22.644,18.992-13.513,0-23.192-6.757-25.2-18.261H59.248Z" transform="translate(27.128 -5.2)" fill="#fff"/>
      <path id="Path_4" data-name="Path 4" d="M76.5,5.8H98.048C116.493,5.8,128,17.67,128,36.3s-11.687,30.5-29.949,30.5H76.5Zm21,49.671c11.687,0,17.9-7.487,17.9-19.174,0-11.87-6.391-19.357-17.9-19.357H89.1V55.471Z" transform="translate(52.243 -4.704)" fill="#fff"/>
    </g>
    <g id="Group_2" data-name="Group 2" transform="translate(6 91.942)">
      <path id="Path_5" data-name="Path 5" d="M33.027,114.193,17.87,74.383v39.81H6V53.2H21.157L37.41,96.114,53.48,53.2H68.271v60.811H56.219V74.383l-14.792,39.81h-8.4Z" transform="translate(-6 -52.287)" fill="#fff"/>
      <path id="Path_6" data-name="Path 6" d="M45.5,89.723V53.2H58.1V88.262c0,10.409,4.565,15.34,12.6,15.34s12.6-4.931,12.6-15.34V53.2H95.9V89.54c0,16.8-10.044,25.566-25.2,25.566C55.726,115.106,45.5,106.341,45.5,89.723Z" transform="translate(26.633 -52.287)" fill="#fff"/>
      <path id="Path_7" data-name="Path 7" d="M89.531,97.258c1.644,5.3,6.209,7.852,12.053,7.852,6.209,0,10.226-2.739,10.226-7.67,0-3.652-2.191-5.661-7.487-6.757L93.366,88.127C84.6,86.118,77.844,81.553,77.844,71.509c0-10.957,9.131-18.809,21.914-18.809,13.879,0,21.914,7.3,23.922,17.714h-12.6c-1.461-4.018-4.931-7.3-11.139-7.3-5.661,0-9.679,2.739-9.679,7.122,0,3.47,2.191,5.478,6.757,6.574l11.139,2.557c9.861,2.191,15.887,7.852,15.887,17.166,0,11.87-9.679,18.992-22.644,18.992-13.513,0-23.192-6.757-25.2-18.261H89.531Z" transform="translate(51.995 -52.7)" fill="#fff"/>
      <path id="Path_8" data-name="Path 8" d="M147.988,53.2V64.339H119.135V77.67h26.3V88.445H119.318v14.427h28.853v11.139H106.9V53.2Z" transform="translate(77.358 -52.287)" fill="#fff"/>
      <path id="Path_9" data-name="Path 9" d="M133.8,89.723V53.2h12.6V88.262c0,10.409,4.565,15.34,12.6,15.34s12.6-4.931,12.6-15.34V53.2h12.6V89.54c0,16.8-10.044,25.566-25.2,25.566S133.8,106.341,133.8,89.723Z" transform="translate(99.581 -52.287)" fill="#fff"/>
      <path id="Path_10" data-name="Path 10" d="M193.827,114.193,178.67,74.383v39.81H166.8V53.2h15.157L198.21,96.114,214.28,53.2h14.792v60.811H217.019V74.383l-14.792,39.81h-8.4Z" transform="translate(126.844 -52.287)" fill="#fff"/>
    </g>
  </g>
</svg>
